<svg width="677" height="575" viewBox="0 0 677 575" fill="none" xmlns="http://www.w3.org/2000/svg">
<g clip-path="url(#clip0_98_32)">
<path fill-rule="evenodd" clip-rule="evenodd" d="M91.215 2.25004C90.648 2.93804 89.675 8.00004 89.053 13.5C87.907 23.62 85.019 35.1251 82.311 40.3641C77.713 49.2601 67.077 56.121 54.732 58.154C51.305 58.719 47.472 59.3781 46.216 59.6181C44.96 59.8581 43.426 61.166 42.807 62.524C41.147 66.168 43.851 68.67 50.33 69.484C73.763 72.429 83.836 82.582 87.551 107C88.429 112.775 89.452 119.525 89.824 122C90.449 126.158 90.742 126.523 93.684 126.808C97.769 127.204 98.541 125.712 99.409 115.745C99.78 111.48 100.936 104.661 101.977 100.591C105.576 86.52 111.061 78.8141 120.665 74.3381C125.708 71.9881 137.311 69.052 141.693 69.017C144.384 68.996 146.96 65.5631 146.269 62.9201C145.578 60.2791 145.372 60.194 135.61 58.491C119.832 55.74 111.078 49.9911 105.592 38.7781C102.877 33.2291 99 15.069 99 7.90205C99 2.28705 94.11 -1.26396 91.215 2.25004ZM91.967 45.3461C89.01 51.6381 82.13 59.135 77.104 61.544C74.859 62.62 73.018 63.7261 73.011 64.0021C73.005 64.2781 75.059 65.596 77.575 66.931C82.934 69.773 88.162 75.5131 91.7 82.437L94.223 87.373L96.787 81.979C99.723 75.802 106.138 69.1301 111.869 66.2951L115.803 64.349L112.53 62.586C107.674 59.971 99.481 51.1841 96.66 45.5661L94.183 40.632L91.967 45.3461ZM328.5 83.619C320.379 85.686 312.641 89.233 284 104.016C127.975 184.55 131.424 182.713 124.956 188.701C118.836 194.367 114.221 202.093 111.339 211.5C109.602 217.167 109.5 223.515 109.5 326C109.5 447.207 109.018 438.582 116.595 453C122.628 464.478 129.513 470.42 149 480.96C156.425 484.977 167.675 491.071 174 494.504C200.566 508.922 234.47 527.255 248 534.518C255.975 538.799 272.809 547.917 285.409 554.779C317.965 572.51 327.738 575.592 345.844 573.842C360.748 572.401 356.851 574.265 447 525.458C526.163 482.599 531.275 479.811 539.363 475.09C554.856 466.045 564.533 452.055 567.52 434.379C568.854 426.486 569.024 411.15 568.781 320.379L568.5 215.5L566.168 209.038C559.77 191.309 554.968 187.195 519.5 169.053C492.737 155.364 479.861 148.712 455.5 135.991C449.45 132.831 435.5 125.617 424.5 119.96C413.5 114.302 395.05 104.77 383.5 98.7781C357.363 85.2181 353.439 83.816 340.5 83.418C335 83.249 329.6 83.339 328.5 83.619ZM329.101 97.49C324.257 98.584 302.976 109.146 241.492 140.974C141.99 192.48 147.172 189.639 144.793 194C142.489 198.223 142.892 203.649 145.81 207.703C147.157 209.573 157.047 215.455 175.662 225.456C190.973 233.682 209.8 243.855 217.5 248.063C225.2 252.271 237.35 258.874 244.5 262.737C251.65 266.599 265.375 274.014 275 279.214C284.625 284.414 299.042 292.102 307.038 296.297C334.515 310.713 344.16 310.566 372.564 295.298C389.69 286.093 424.485 267.28 460 248.024C473.475 240.718 494.175 229.574 506 223.26C517.825 216.946 528.727 210.631 530.227 209.225C531.727 207.82 533.449 205.169 534.054 203.335C535.458 199.082 533.998 194.299 530.227 190.799C528.727 189.407 517.6 183.2 505.5 177.005C493.4 170.811 480.35 164.046 476.5 161.974C449.653 147.519 357.495 100.386 353.142 98.883C345.624 96.288 336.714 95.772 329.101 97.49ZM328.803 180.335C318.91 183.134 313 189.461 313 197.253C313 203.576 319.769 210.73 327.882 212.984C333.092 214.431 343.919 214.23 349.386 212.584C367.397 207.164 368.961 189.843 352.153 181.942C346.479 179.275 335.276 178.504 328.803 180.335ZM545.986 200.75C545.979 202.262 545.728 204.413 545.428 205.528C544.974 207.216 545.562 207.737 548.941 208.639C551.984 209.451 553 209.43 553 208.557C553 207.242 547.329 198 546.522 198C546.235 198 545.994 199.238 545.986 200.75ZM127.775 221.559C126.276 222.372 124.476 224.042 123.775 225.269C122.099 228.201 121.36 420.623 122.982 431.5C124.272 440.145 129.507 451.178 134.689 456.174C138.513 459.861 146.631 464.662 174.5 479.72C182.75 484.178 203.9 495.659 221.5 505.234C288.985 541.948 314.061 555.224 317.301 555.955C322.118 557.042 327.014 555.12 329.733 551.076L332.036 547.651L331.768 442.554L331.5 337.457L328.213 330.781C323.722 321.66 319.1 317.923 298.758 306.968C289.266 301.857 270.475 291.746 257 284.499C243.525 277.253 214.95 261.869 193.5 250.313C139.644 221.297 137.064 219.994 133.565 220.04C131.879 220.062 129.274 220.746 127.775 221.559ZM531.5 224.9C526.55 227.567 506.975 238.071 488 248.241C446.56 270.452 377.023 307.871 368.058 312.783C356.566 319.08 349.591 327.09 346.978 336.992C345.541 342.437 344.785 537.554 346.17 545.5C346.775 548.97 347.959 551.418 350.04 553.5C355.997 559.46 356.268 559.354 412.361 529.108C485.987 489.406 534.443 462.778 539.329 459.333C541.698 457.664 545.513 453.486 547.809 450.048C555.973 437.822 555.431 445.636 555.794 335C555.971 280.825 555.823 234.061 555.465 231.08C554.974 226.994 554.117 224.963 551.984 222.83C547.57 218.416 542.6 218.918 531.5 224.9ZM21.2 232.2C20.54 232.86 20 234.818 20 236.551C20 243.744 15.375 251.213 10.14 252.474C0.0340204 254.91 -0.135999 254.999 0.189001 257.697C0.456001 259.921 1.27201 260.481 5.98701 261.682C15.484 264.102 18.57 267.571 19.698 277.096C20.589 284.619 26.189 286.47 27.477 279.666C29.758 267.623 32.383 264.001 40.295 261.977C46.588 260.367 46.996 260.174 47.635 258.51C48.538 256.155 46.384 254.317 41.876 253.596C32.963 252.171 30.022 248.981 28.116 238.672C27.528 235.489 26.784 232.46 26.464 231.942C25.648 230.621 22.631 230.769 21.2 232.2ZM21.29 255.424L19.081 257.637L21.185 259.741L23.29 261.846L26.011 259.834L28.731 257.822L26.32 255.411C24.994 254.085 23.817 253.047 23.705 253.105C23.592 253.164 22.506 254.207 21.29 255.424ZM509.994 282.924C498.995 286.315 490.703 297.469 489.429 310.586C488.948 315.543 489.231 317.216 491.177 320.926C494.125 326.543 498.964 329.337 504.342 328.526C520.253 326.128 532.502 304.966 526.211 290.744C523.45 284.502 516.206 281.009 509.994 282.924ZM154.5 288.711C151.031 289.542 146.261 294.998 144.969 299.611C140.613 315.17 155.236 335.361 169.683 333.732C178.371 332.753 182.996 326.766 182.998 316.5C182.998 311.943 182.306 309.057 180.118 304.5C174.346 292.478 164.39 286.342 154.5 288.711ZM643.571 290.571C642.707 291.436 641.993 293.798 641.985 295.821C641.961 301.943 639.083 312.202 636.406 315.711C633.392 319.663 627.789 322.702 621.842 323.61C616.737 324.39 615 325.541 615 328.144C615 330.203 616.8 331.113 624.472 332.932C635.187 335.473 639.14 340.621 641.449 355.046C642.827 363.65 643.733 365.395 646.537 364.844C648.921 364.375 649.608 362.7 650.901 354.199C652.813 341.629 657.461 335.399 666.634 333.112C675.486 330.905 676.478 330.474 676.823 328.681C677.297 326.218 675.209 324 672.415 324C671.128 324 667.657 323.095 664.702 321.99C655.75 318.64 652.654 313.79 650.585 299.872C649.036 289.45 647.169 286.974 643.571 290.571ZM642 323.148L637.5 327.853L641.11 331.176C643.096 333.004 644.909 335.102 645.14 335.839C645.412 336.708 647.211 335.526 650.265 332.472L654.971 327.765L652.373 325.721C650.944 324.597 649.038 322.5 648.137 321.06L646.5 318.443L642 323.148ZM405.462 339.366C392.483 345.41 384.741 362.814 389.614 374.993C391.885 380.67 395.557 383 402.233 383C409.377 383 415.456 379.064 420.896 370.918C429.489 358.05 428.4 343.792 418.456 338.979C413.237 336.452 411.615 336.5 405.462 339.366ZM195.256 357.645C189.952 360.259 187.495 365.3 187.528 373.5C187.551 379.212 188.096 381.577 190.49 386.352C197.227 399.788 210.7 405.622 219.886 399.081C224.042 396.121 226.002 391.233 225.99 383.849C225.962 365.752 208.688 351.023 195.256 357.645ZM456.479 367.871C447.374 372.007 439 385.517 439 396.07C439 406.272 443.758 412 452.234 412C458.427 412 462.674 410.025 467.959 404.687C479.859 392.668 480.919 373.693 470.016 367.863C465.648 365.528 461.632 365.53 456.479 367.871ZM508.885 397.342C500.442 400.447 494.098 407.798 490.848 418.24C488.648 425.31 488.511 429.916 490.371 434.282C495.143 445.482 508.319 445.781 518.478 434.92C525.031 427.915 527.419 422.175 527.464 413.327C527.493 407.605 527.083 405.594 525.438 403.389C520.779 397.14 515.087 395.06 508.885 397.342ZM237.978 428.786C235.685 431.08 233.733 434.278 233.027 436.899C228.698 452.976 246.261 474.235 260.378 470.005C274.805 465.683 275.659 444.373 261.92 431.522C256.144 426.119 253.553 425 246.817 425C242.303 425 241.361 425.404 237.978 428.786ZM405.399 451.851C393.449 457.439 385.125 474.759 388.897 486.189C391.736 494.79 400.725 498.248 409.368 494.064C425.398 486.304 432.354 460.175 420.465 452.385C416.607 449.857 410.152 449.629 405.399 451.851Z" fill="currentColor"/>
</g>
<defs>
<clipPath id="clip0_98_32">
<rect width="677" height="575" fill="white"/>
</clipPath>
</defs>
</svg>
