<svg width="906" height="748" viewBox="0 0 906 748" fill="none" xmlns="http://www.w3.org/2000/svg">
<path fill-rule="evenodd" clip-rule="evenodd" d="M160.422 0.923056C134.536 3.19906 99.8159 10.0161 79.1069 16.8881C37.7019 30.6281 11.9139 51.5351 3.34192 78.3131C1.27392 84.7711 1.0549 87.8291 0.510898 117.813C0.186898 135.688 -0.0400765 257.188 0.00592351 387.813C0.0729235 577.04 0.349907 626.431 1.36991 630.813C4.86991 645.848 15.9899 659.859 29.5189 666.279C43.4809 672.905 55.6089 673.331 77.4219 667.962C94.2219 663.826 112.33 660.394 133.422 657.347C199.908 647.743 278.869 654.034 341.025 673.888C355 678.352 366.164 683.095 379.204 690.108C394.268 698.21 397.552 701.141 400.384 709.01C407.264 728.125 423.758 743.042 442.262 746.884C466.63 751.942 492.537 737.59 502.743 713.379C504.613 708.943 506.405 704.555 506.726 703.629C507.699 700.818 521.214 691.961 533.953 685.785C572.929 666.891 632.5 654.707 693.422 653.17C739.433 652.01 782.972 656.93 831.397 668.764C851.364 673.644 863.193 672.721 877.582 665.159C890.945 658.138 902.018 642.704 904.377 627.813C905.749 619.151 905.814 98.8201 904.444 90.3131C898.759 55.0171 872.389 31.4381 820.599 15.338C799.521 8.78605 788.629 6.48406 760.422 2.61906C746.139 0.662055 739.555 0.356051 711.422 0.336051C677.535 0.313051 668.299 1.03705 640.422 5.90705C577.168 16.958 513.29 45.9611 462.747 86.5781L452.462 94.8441L448.692 91.4971C439.766 83.5741 417.882 67.8741 402.845 58.6081C381.508 45.4581 348.618 29.564 328.422 22.642C294.959 11.172 258.052 3.29006 226.216 0.814063C211.636 -0.318937 173.845 -0.256944 160.422 0.923056ZM179.922 43.8471C137.712 45.7521 99.8749 53.9741 71.9219 67.3161C58.8019 73.5781 55.5649 75.9201 50.3349 82.9291C42.8259 92.9941 43.4219 69.182 43.4219 359.027C43.4219 644.71 42.9919 624.988 49.2939 628.247C53.5489 630.447 58.5009 630.206 69.9029 627.242C79.5229 624.742 87.8519 622.85 107.422 618.72C135.323 612.832 169.699 609.613 204.922 609.59C256.466 609.556 298.914 615.522 342.922 628.982C373.074 638.205 406.491 655.197 423.672 670.043L429.422 675.011L429.409 403.162L429.395 131.313L422.703 125.813C391.876 100.48 361.258 82.5661 323.922 68.0191C292.729 55.8661 250.607 46.4201 218.422 44.3611C199.167 43.1301 196.59 43.0951 179.922 43.8471ZM683.422 44.4461C661.452 46.4411 626.638 52.9871 608.422 58.5471C596.881 62.0691 572.866 71.0731 562.084 75.9191C535.382 87.9201 504.093 107.436 482.239 125.721L475.556 131.313L475.489 403.775L475.422 676.238L480.172 671.617C499.898 652.427 541.003 633.531 588.474 621.831C614.973 615.299 643.5 611.562 680.422 609.785C728.691 607.461 776.765 612.805 833.233 626.769C847.096 630.197 851.229 630.481 855.455 628.296C861.935 624.945 861.463 647.341 861.179 357.098L860.922 93.3131L858.007 88.0521C854.265 81.2981 846.696 74.1741 838.248 69.4541C821.139 59.8961 786.568 50.1731 755.533 46.1901C744.403 44.7621 693.501 43.5311 683.422 44.4461Z" fill="#F9F5F2"/>
</svg>
