<svg width="1254" height="1254" viewBox="0 0 1254 1254" fill="none" xmlns="http://www.w3.org/2000/svg">
<mask id="mask0_16_480" style="mask-type:alpha" maskUnits="userSpaceOnUse" x="0" y="0" width="1254" height="1254">
<path fill-rule="evenodd" clip-rule="evenodd" d="M542 331.034C488.935 336.521 452.196 349.539 418.335 374.852C407.047 383.291 389.353 400.891 380.303 412.683C355.656 444.798 338.867 486.824 333.436 530C331.089 548.66 331.864 586.424 334.924 602.49C344.587 653.224 368.423 698.349 404.974 735.101C418.97 749.174 436.894 763.362 451.32 771.785L459.139 776.351L458.592 780.925C458.291 783.441 457.342 792.475 456.483 801C453.728 828.325 448.904 857.481 443.972 876.608C440.098 891.632 440.116 894.923 444.091 899.451C451.801 908.232 461.623 906.188 495 888.855C521.292 875.201 547.868 855.935 572.271 832.837L586.042 819.803L599.164 820.902C670.66 826.886 756.45 809.528 812.5 777.738C835.178 764.876 852.362 751.868 869.5 734.593C897.046 706.826 914.234 676.779 925.518 636.667C931.226 616.374 932.988 600.648 932.995 569.958C933.002 533.167 930.557 515.282 921.809 488.146C896.68 410.194 827.49 357.209 726.457 338.546C703.181 334.246 685.865 332.905 640.5 331.886C568.512 330.27 550.858 330.118 542 331.034ZM540.5 353.058C470.047 359.643 417.642 390.459 385.002 444.497C361.818 482.88 349.891 533.989 353.965 577.5C358.739 628.493 377.344 671.465 412 711.543C425.06 726.646 449.947 746.674 467.221 755.982C475.285 760.327 479.555 764.38 480.645 768.722C482.434 775.848 473.181 848.394 467.537 871.5C466.731 874.8 466.055 877.823 466.036 878.217C466.016 878.611 469.938 877.017 474.75 874.675C507.714 858.631 534.344 839.692 560.677 813.566C576.657 797.712 578.089 796.952 589.742 798.145C605.339 799.743 638.907 800.246 654 799.108C738.621 792.73 805.11 766.868 850.86 722.538C879.514 694.774 897.331 662.893 906.488 623C913.512 592.396 913.89 552.286 907.458 520C899.787 481.497 884.324 451.287 859.549 426.402C821.591 388.274 767.655 364.968 697.5 356.381C678.793 354.091 557.022 351.514 540.5 353.058ZM564.608 488.472C554.572 491.331 546.775 496.029 539 503.904C526.976 516.081 521.654 529.657 521.864 547.614C522.146 571.82 536.853 595.979 572.634 631.015C591.642 649.628 634.254 687 636.468 687C638.735 687 678.214 650.986 701.036 628.098C729.114 599.94 741.38 583.656 747.767 566.06C758.795 535.68 744.027 502.62 713.967 490.39C708.702 488.248 705.363 487.668 696 487.268C685.474 486.818 683.822 487.002 676.5 489.44C660.513 494.763 647.671 506.376 640.221 522.246L636.584 529.991L632.842 522.246C625.563 507.18 614.002 496.104 599.563 490.36C593.466 487.934 590.927 487.518 581 487.314C573.498 487.16 567.799 487.562 564.608 488.472Z" fill="black"/>
</mask>
<g mask="url(#mask0_16_480)">
<path d="M680.458 549.621C680.458 548.938 680.458 546.535 678.843 542.522C677.893 540.164 673.995 538.749 651.169 536.589C628.344 534.428 586.022 531.973 563.34 530.838C540.658 529.703 538.897 529.964 536.604 531.03C534.311 532.095 531.538 533.958 529.533 536.627C525.414 542.113 526.272 551.534 529.781 561.846C538.159 586.466 566.761 596.498 580.656 602.694C606.297 614.126 635.307 607.684 657.236 599.62C667.24 595.941 673.661 588.069 678.87 582.464C682.138 578.949 682.659 573.579 682.157 567.271C681.742 562.061 672.513 555.452 657.491 545.346C638.803 532.775 618.76 527.048 604.76 523.381C592.742 520.232 581.336 520.799 572.462 521.615C568.889 521.944 567.456 523.757 566.495 526.15C564.302 531.617 564.852 537.481 565.393 541.781C567.05 554.934 587.627 575.01 599.725 585.231C609.778 593.724 624.329 595.64 644.505 597.33C656.845 598.364 665.545 588.211 671.53 580.029C677.393 572.014 676.16 557.218 674.403 547.14C672.319 535.183 651.521 522.089 636.366 512.656C625.603 505.957 604.119 506.364 594.249 508.398C582.896 510.737 577.741 527.652 574.761 542.037C571.541 557.58 577.721 568.669 590.841 589.6C607.32 615.89 632.439 630.708 648.784 637.345C652.489 638.85 656.371 638.488 659.313 637.816C662.254 637.144 664.341 635.531 665.808 632.561C674.938 614.075 668.04 588.027 649.909 553.583C629.913 515.594 609.59 509.141 595.071 505.965C588.043 504.428 582.582 506.282 579.403 507.605C571.523 510.886 564.435 523.946 560.456 534.512C551.823 557.437 558.286 588.213 566.011 607.543C572.32 623.33 591.709 639.048 603.812 648.178C620.711 660.927 641.058 662.394 654.106 662.667C656.208 662.711 656.911 660.367 657.244 658.486C657.578 656.606 657.378 654.441 656.217 652.396C655.057 650.351 652.943 648.49 650.696 647.097C648.449 645.704 646.135 644.835 644.595 646.647C643.055 648.46 642.359 652.98 644.706 658.064C650.208 669.987 660.349 676.001 664.76 677.912C668.45 679.512 677.536 655.403 692.212 617.126C699.211 598.87 707.991 584.076 717.02 570.143C734.568 543.064 746.424 529.24 746.896 525.554C747.123 523.777 745.562 522.184 741.543 521.18C730.885 518.517 718.865 522.144 711.006 527.397C700.807 534.213 700.715 546.626 701.533 555.647C701.748 558.029 704.972 559.43 707.185 560.359C711.247 562.065 715.74 561.045 719.9 559.45C728.921 555.992 730.694 542.267 731.442 533.595C732.106 525.892 723.594 514.33 716.201 505.241C710.197 497.86 698.662 493.481 683.533 492.993C676.363 492.761 671.2 498.651 667.221 503.464C660.221 511.932 660.665 528.823 662.763 537.594C664.601 545.276 675.207 547.474 690.09 550.208C702.675 552.52 712.378 550.743 716.892 549.53C722.55 548.011 727.243 542.986 730.691 537.737C733.958 532.765 731.945 526.09 729.103 520.629C721.506 506.028 686.903 496.135 656.486 485.889C628.041 476.307 601.387 476.134 583.008 475.989C573.264 475.911 567.201 478.7 560.668 482.977C548.584 490.888 547.418 501.685 545.669 512.97C543.968 523.947 545.747 532.721 547.248 536.321C551.802 547.233 571.764 554.585 595.075 557.216C603.638 558.183 610.409 554.659 615.739 549.831C618.067 547.724 618.295 545.037 618.294 542.711C618.294 540.386 617.718 538.178 616.734 536.356C609.832 523.583 577.919 510.89 553.376 503.763C538.428 499.423 526.562 503.249 522.129 507.156C510.294 517.591 518.402 541.959 534.246 572.766C544.864 593.41 566.788 609.632 585.484 623.956C605.875 639.578 632.128 639.371 665.988 637.123C698.121 634.991 719.023 620.764 724.756 617.365C733.102 612.416 733.616 601.922 734.14 579.808C734.258 574.818 733.411 572.769 732.28 571.728C731.149 570.688 729.446 570.72 727.943 571.542C725.191 573.975 718.698 585.609 707.423 610.507C701.353 625.429 694.574 644.997 687.525 664.164" stroke="#D55A2A" stroke-width="68" stroke-linecap="round" stroke-linejoin="round"/>
<path d="M455.554 750.033C455.554 760.925 457.771 789.483 462.666 798.46C477.705 826.038 449.749 875.348 450.562 880.096C451.174 883.674 457.974 882.047 463.634 880.719C472.315 878.681 492.739 865.219 521.219 845.931C555.745 822.548 558.997 812.866 564.648 808.052C570.922 802.707 618.011 804.308 643.315 802.865C647.379 802.633 649.215 797.554 665.78 794.844C681.422 792.284 712.453 793.405 730.423 792.887C748.393 792.369 752.539 791.735 765.511 788.183C800.289 778.66 827.81 770.307 837.742 767.682C846.276 765.426 851.535 762.148 854.638 759.74C861.263 754.602 860.509 743.88 883.072 688.063C894.416 659.999 892.638 642.171 896.333 632.335C900.615 620.934 916.635 613.583 923.18 607.5C928.908 602.176 917.98 591.148 912.42 583.47C910.69 581.081 910.83 576.89 903.208 556.977C895.587 537.064 880.872 501.188 872.735 480.333C857.946 442.427 858.461 413.339 852.917 399.881C847.97 387.876 888.636 434.309 902.275 457.47C906.454 464.566 907.622 470.545 909.702 478.189C920.01 516.065 931.444 548.352 932.303 554.231C932.742 557.24 932.609 560.369 930.768 556.6C928.928 552.831 925.236 542.086 915.433 521.5C905.63 500.913 889.828 470.809 879.623 452.512C861.226 419.525 851.045 414.034 835.566 405.48C822.213 398.101 809.681 391.362 798.469 381.574C766.095 353.315 749.485 347.597 724.787 345.845C702.208 344.243 659.068 344.266 634.774 343.494C597.907 342.321 585.865 336.195 575.42 336.154C568.407 336.126 538.352 348.06 496.429 364.223C469.609 374.563 447.587 375.863 423.181 384.955C414.288 388.268 400.271 399.742 378.732 417.966C356.002 437.198 343.454 454.412 337.707 462.435C328.685 475.03 328.142 496.297 332.276 506.423C338.176 520.875 351.832 470.28 355.342 462.37C356.483 459.799 358.356 461.325 359.064 462.889C360.503 466.069 354.167 488.173 344.927 535.118C339.668 561.835 339.831 595.519 339.133 613.724C338.214 637.684 351.948 661.107 368.899 682.646C380.723 697.67 404.194 708.595 410.646 715.441C416.266 721.403 418.299 729.027 424.915 733.627C428.569 735.791 432.045 738.101 435.165 740.588C436.696 741.856 438.122 743.136 442.304 745.634" stroke="#694A38" stroke-width="68" stroke-linecap="round" stroke-linejoin="round"/>
</g>
</svg>
